<?xml version="1.0" encoding="UTF-8"?>
<svg id="text" xmlns="http://www.w3.org/2000/svg" viewBox="0 0 186 149">
  <defs>
    <style>
      .cls-1 {
        fill: none;
        stroke: #fff;
        stroke-miterlimit: 10;
        stroke-width: .5px;
      }

      .cls-2 {
        fill: #fff;
      }
    </style>
  </defs>
  <path class="cls-2" d="M167.09.41v148.17H18.91V.41h148.17M167.5,0H18.5v149h149V0h0Z"/>
  <path class="cls-1" d="M52.13,60.74h-7.6v-16.77h8.14c2.05.03,3.51.63,4.37,1.79.52.71.77,1.57.77,2.56s-.26,1.85-.77,2.47c-.29.35-.71.67-1.27.96.86.31,1.5.8,1.94,1.48.44.67.65,1.49.65,2.46s-.25,1.88-.75,2.67c-.32.52-.72.96-1.19,1.32-.54.41-1.17.69-1.91.84-.73.15-1.53.23-2.38.23ZM53.79,50.16c.45-.27.68-.76.68-1.47,0-.78-.3-1.3-.91-1.55-.52-.17-1.19-.26-2-.26h-3.69v3.7h4.12c.74,0,1.33-.14,1.8-.42ZM52.05,53.36h-4.17v4.47h4.12c.74,0,1.31-.1,1.72-.3.74-.36,1.11-1.06,1.11-2.09,0-.87-.36-1.47-1.08-1.8-.4-.18-.97-.28-1.69-.28ZM68.42,54.16h-3.62v6.57h-3.42v-16.77h8.22c1.18.02,2.08.17,2.71.43.63.27,1.17.66,1.61,1.17.36.42.65.89.86,1.41.21.52.32,1.1.32,1.76,0,.8-.2,1.58-.6,2.35-.4.77-1.07,1.31-1.99,1.63.77.31,1.32.75,1.64,1.33.32.57.48,1.45.48,2.62v1.13c0,.77.03,1.29.09,1.56.09.43.3.75.64.96v.42h-3.86c-.11-.37-.18-.67-.23-.9-.09-.47-.14-.95-.15-1.44l-.02-1.56c-.02-1.07-.21-1.78-.59-2.14-.38-.36-1.08-.53-2.11-.53ZM70.54,51.12c.7-.32,1.05-.95,1.05-1.89,0-1.02-.34-1.7-1.01-2.05-.38-.2-.95-.3-1.71-.3h-4.07v4.5h3.97c.79,0,1.38-.09,1.77-.27ZM87.93,57.29h-6.18l-1.16,3.45h-3.66l5.98-16.77h3.96l5.94,16.77h-3.8l-1.08-3.45ZM86.95,54.4l-2.09-6.6-2.16,6.6h4.25ZM108.5,60.74h-3.5l-6.85-11.91v11.91h-3.26v-16.77h3.67l6.68,11.7v-11.7h3.26v16.77ZM118.98,60.74h-7.22v-16.77h7.22c1.04.02,1.9.14,2.59.36,1.18.39,2.13,1.1,2.85,2.13.58.83.98,1.74,1.19,2.71.21.97.32,1.9.32,2.78,0,2.23-.45,4.12-1.34,5.66-1.21,2.09-3.09,3.13-5.62,3.13ZM121.59,48.25c-.54-.91-1.6-1.36-3.2-1.36h-3.23v10.94h3.23c1.65,0,2.81-.82,3.46-2.45.36-.89.53-1.96.53-3.2,0-1.71-.27-3.02-.8-3.94ZM134.67,58.32c.83,0,1.5-.09,2.01-.27.98-.35,1.47-1,1.47-1.94,0-.55-.24-.98-.73-1.29-.49-.3-1.25-.56-2.29-.78l-1.77-.4c-1.74-.39-2.95-.82-3.62-1.29-1.13-.77-1.69-1.98-1.69-3.63,0-1.5.55-2.75,1.64-3.74,1.09-.99,2.7-1.49,4.81-1.49,1.77,0,3.27.47,4.52,1.4,1.25.94,1.9,2.3,1.96,4.08h-3.37c-.06-1.01-.5-1.72-1.32-2.15-.55-.28-1.22-.42-2.04-.42-.9,0-1.62.18-2.16.55-.54.36-.81.87-.81,1.52,0,.6.27,1.05.8,1.34.34.2,1.07.43,2.18.69l2.89.69c1.27.3,2.22.71,2.87,1.22,1,.79,1.5,1.93,1.5,3.42s-.59,2.8-1.76,3.82c-1.17,1.01-2.83,1.52-4.96,1.52s-3.9-.5-5.15-1.5c-1.25-1-1.88-2.37-1.88-4.11h3.34c.11.77.31,1.34.63,1.72.57.69,1.54,1.04,2.92,1.04Z"/>
  <path class="cls-1" d="M52.13,82.89h-7.6v-16.77h8.14c2.05.03,3.51.63,4.37,1.79.52.71.77,1.57.77,2.56s-.26,1.85-.77,2.47c-.29.35-.71.67-1.27.96.86.31,1.5.8,1.94,1.48.44.67.65,1.49.65,2.46s-.25,1.88-.75,2.67c-.32.52-.72.96-1.19,1.32-.54.41-1.17.69-1.91.84-.73.15-1.53.23-2.38.23ZM53.79,72.32c.45-.27.68-.76.68-1.47,0-.78-.3-1.3-.91-1.55-.52-.17-1.19-.26-2-.26h-3.69v3.7h4.12c.74,0,1.33-.14,1.8-.42ZM52.05,75.51h-4.17v4.47h4.12c.74,0,1.31-.1,1.72-.3.74-.36,1.11-1.06,1.11-2.09,0-.87-.36-1.47-1.08-1.8-.4-.18-.97-.28-1.69-.28ZM71.21,76.43v-10.3h3.56v10.3c0,1.78-.28,3.17-.83,4.16-1.03,1.82-3,2.73-5.9,2.73s-4.88-.91-5.91-2.73c-.55-.99-.83-2.38-.83-4.16v-10.3h3.56v10.3c0,1.15.14,1.99.41,2.53.42.94,1.35,1.41,2.78,1.41s2.34-.47,2.76-1.41c.27-.53.41-1.37.41-2.53ZM89.98,82.89h-13.05v-2.96l8.66-10.84h-8.44v-2.97h12.81v2.81l-8.77,11h8.79v2.96ZM104.21,82.89h-13.05v-2.96l8.66-10.84h-8.44v-2.97h12.81v2.81l-8.77,11h8.79v2.96Z"/>
  <path class="cls-2" d="M56.36,91.25h-8.41v3.86h7.36v2.91h-7.36v7.03h-3.48v-16.74h11.89v2.95ZM68.62,98.59v-10.3h3.56v10.3c0,1.78-.28,3.17-.83,4.16-1.03,1.82-3,2.73-5.9,2.73s-4.88-.91-5.91-2.73c-.55-.99-.83-2.38-.83-4.16v-10.3h3.56v10.3c0,1.15.14,1.99.41,2.53.42.94,1.35,1.41,2.78,1.41s2.34-.47,2.76-1.41c.27-.53.41-1.37.41-2.53ZM87.71,88.28v2.97h-5.02v13.8h-3.53v-13.8h-5.04v-2.97h13.58ZM99.67,98.59v-10.3h3.56v10.3c0,1.78-.28,3.17-.83,4.16-1.03,1.82-3,2.73-5.9,2.73s-4.88-.91-5.91-2.73c-.55-.99-.83-2.38-.83-4.16v-10.3h3.56v10.3c0,1.15.14,1.99.41,2.53.42.94,1.35,1.41,2.78,1.41s2.34-.47,2.76-1.41c.27-.53.41-1.37.41-2.53ZM113.69,98.48h-3.62v6.57h-3.42v-16.77h8.22c1.18.02,2.08.17,2.71.43.63.27,1.17.66,1.61,1.17.36.42.65.89.86,1.41.21.52.32,1.1.32,1.76,0,.8-.2,1.58-.6,2.35-.4.77-1.07,1.31-1.99,1.63.77.31,1.32.75,1.64,1.33.32.57.48,1.45.48,2.62v1.13c0,.77.03,1.29.09,1.56.09.43.3.75.64.96v.42h-3.86c-.11-.37-.18-.67-.23-.9-.09-.47-.14-.95-.15-1.44l-.02-1.56c-.02-1.07-.21-1.78-.59-2.14-.38-.36-1.08-.53-2.11-.53ZM115.82,95.43c.7-.32,1.05-.95,1.05-1.89,0-1.02-.34-1.7-1.01-2.05-.38-.2-.95-.3-1.71-.3h-4.07v4.5h3.97c.79,0,1.38-.09,1.77-.27ZM130.81,105.52c-2.4,0-4.23-.65-5.49-1.96-1.7-1.6-2.55-3.91-2.55-6.92s.85-5.38,2.55-6.92c1.27-1.3,3.1-1.96,5.49-1.96s4.23.65,5.49,1.96c1.69,1.54,2.54,3.84,2.54,6.92s-.85,5.32-2.54,6.92c-1.27,1.3-3.1,1.96-5.49,1.96ZM134.12,101.01c.81-1.02,1.22-2.48,1.22-4.37s-.41-3.33-1.22-4.36c-.82-1.03-1.92-1.54-3.3-1.54s-2.49.51-3.32,1.54c-.83,1.02-1.24,2.48-1.24,4.37s.41,3.34,1.24,4.37c.83,1.02,1.93,1.54,3.32,1.54s2.49-.51,3.31-1.54Z"/>
</svg>